<?xml version="1.0" encoding="UTF-8" standalone="no"?>
<!DOCTYPE svg PUBLIC "-//W3C//DTD SVG 1.1//EN"
 "http://www.w3.org/Graphics/SVG/1.1/DTD/svg11.dtd">
<!-- Generated by graphviz version 2.40.1 (20161225.0304)
 -->
<!-- Title: G Pages: 1 -->
<svg width="534pt" height="560pt"
 viewBox="0.00 0.00 533.84 560.00" xmlns="http://www.w3.org/2000/svg" xmlns:xlink="http://www.w3.org/1999/xlink">
<g id="graph0" class="graph" transform="scale(1 1) rotate(0) translate(4 556)">
<title>G</title>
<polygon fill="#ffffff" stroke="transparent" points="-4,4 -4,-556 529.8423,-556 529.8423,4 -4,4"/>
<!-- A0 -->
<g id="node1" class="node">
<title>A0</title>
<ellipse fill="none" stroke="#000000" cx="405.7633" cy="-537" rx="11" ry="11"/>
</g>
<!-- A1 -->
<g id="node2" class="node">
<title>A1</title>
<path fill="none" stroke="#000000" d="M442.7683,-474C442.7683,-474 368.7583,-474 368.7583,-474 362.7583,-474 356.7583,-468 356.7583,-462 356.7583,-462 356.7583,-450 356.7583,-450 356.7583,-444 362.7583,-438 368.7583,-438 368.7583,-438 442.7683,-438 442.7683,-438 448.7683,-438 454.7683,-444 454.7683,-450 454.7683,-450 454.7683,-462 454.7683,-462 454.7683,-468 448.7683,-474 442.7683,-474"/>
<text text-anchor="middle" x="405.7633" y="-459" font-family="Helvetica,sans-Serif" font-size="10.00" fill="#000000">{Client Program</text>
<text text-anchor="middle" x="405.7633" y="-447" font-family="Helvetica,sans-Serif" font-size="10.00" fill="#000000">Running}</text>
</g>
<!-- A0&#45;&gt;A1 -->
<g id="edge1" class="edge">
<title>A0&#45;&gt;A1</title>
<path fill="none" stroke="#000000" d="M405.7633,-525.7373C405.7633,-515.0682 405.7633,-498.6026 405.7633,-484.3496"/>
<polygon fill="#000000" stroke="#000000" points="405.7633,-474.0142 410.2634,-484.0142 405.7634,-479.0142 405.7634,-484.0142 405.7634,-484.0142 405.7634,-484.0142 405.7634,-479.0142 401.2634,-484.0143 405.7633,-474.0142 405.7633,-474.0142"/>
<text text-anchor="middle" x="419.0998" y="-495" font-family="Helvetica,sans-Serif" font-size="10.00" fill="#000000">[Start]</text>
</g>
<!-- A2 -->
<g id="node3" class="node">
<title>A2</title>
<path fill="none" stroke="#000000" d="M442.7304,-401C442.7304,-401 368.7962,-401 368.7962,-401 362.7962,-401 356.7962,-395 356.7962,-389 356.7962,-389 356.7962,-377 356.7962,-377 356.7962,-371 362.7962,-365 368.7962,-365 368.7962,-365 442.7304,-365 442.7304,-365 448.7304,-365 454.7304,-371 454.7304,-377 454.7304,-377 454.7304,-389 454.7304,-389 454.7304,-395 448.7304,-401 442.7304,-401"/>
<text text-anchor="middle" x="405.7633" y="-380" font-family="Helvetica,sans-Serif" font-size="10.00" fill="#000000">{Login Window}</text>
</g>
<!-- A1&#45;&gt;A2 -->
<g id="edge2" class="edge">
<title>A1&#45;&gt;A2</title>
<path fill="none" stroke="#000000" d="M405.7633,-437.9551C405.7633,-429.8828 405.7633,-420.1764 405.7633,-411.1817"/>
<polygon fill="#000000" stroke="#000000" points="405.7633,-401.0904 410.2634,-411.0903 405.7634,-406.0904 405.7634,-411.0904 405.7634,-411.0904 405.7634,-411.0904 405.7634,-406.0904 401.2634,-411.0904 405.7633,-401.0904 405.7633,-401.0904"/>
</g>
<!-- A2&#45;&gt;A2 -->
<g id="edge4" class="edge">
<title>A2&#45;&gt;A2</title>
<path fill="none" stroke="#000000" d="M454.6482,-389.5321C465.0121,-388.8688 472.4963,-386.6914 472.4963,-383 472.4963,-380.6929 469.5728,-378.9772 464.8499,-377.8529"/>
<polygon fill="#000000" stroke="#000000" points="454.6482,-376.4679 465.1627,-373.3542 459.6027,-377.1406 464.5573,-377.8133 464.5573,-377.8133 464.5573,-377.8133 459.6027,-377.1406 463.9519,-382.2724 454.6482,-376.4679 454.6482,-376.4679"/>
<text text-anchor="middle" x="499.1693" y="-380" font-family="Helvetica,sans-Serif" font-size="10.00" fill="#000000">[login failed]</text>
</g>
<!-- A3 -->
<g id="node4" class="node">
<title>A3</title>
<path fill="none" stroke="#000000" d="M375.5006,-317C375.5006,-317 294.0261,-317 294.0261,-317 288.0261,-317 282.0261,-311 282.0261,-305 282.0261,-305 282.0261,-293 282.0261,-293 282.0261,-287 288.0261,-281 294.0261,-281 294.0261,-281 375.5006,-281 375.5006,-281 381.5006,-281 387.5006,-287 387.5006,-293 387.5006,-293 387.5006,-305 387.5006,-305 387.5006,-311 381.5006,-317 375.5006,-317"/>
<text text-anchor="middle" x="334.7633" y="-302" font-family="Helvetica,sans-Serif" font-size="10.00" fill="#000000">{TransactionDAO</text>
<text text-anchor="middle" x="334.7633" y="-290" font-family="Helvetica,sans-Serif" font-size="10.00" fill="#000000">instance Initiate}</text>
</g>
<!-- A2&#45;&gt;A3 -->
<g id="edge3" class="edge">
<title>A2&#45;&gt;A3</title>
<path fill="none" stroke="#000000" d="M384.4975,-364.7551C378.623,-359.2976 372.4292,-353.1285 367.1933,-347 361.5895,-340.4408 356.0999,-332.8879 351.2772,-325.7437"/>
<polygon fill="#000000" stroke="#000000" points="345.5667,-317.0185 354.8082,-322.9214 348.3048,-321.2021 351.043,-325.3858 351.043,-325.3858 351.043,-325.3858 348.3048,-321.2021 347.2777,-327.8501 345.5667,-317.0185 345.5667,-317.0185"/>
<text text-anchor="middle" x="400.5483" y="-338" font-family="Helvetica,sans-Serif" font-size="10.00" fill="#000000">[login success]</text>
</g>
<!-- A4 -->
<g id="node5" class="node">
<title>A4</title>
<path fill="none" stroke="#000000" d="M290.9044,-244C290.9044,-244 190.6222,-244 190.6222,-244 184.6222,-244 178.6222,-238 178.6222,-232 178.6222,-232 178.6222,-220 178.6222,-220 178.6222,-214 184.6222,-208 190.6222,-208 190.6222,-208 290.9044,-208 290.9044,-208 296.9044,-208 302.9044,-214 302.9044,-220 302.9044,-220 302.9044,-232 302.9044,-232 302.9044,-238 296.9044,-244 290.9044,-244"/>
<text text-anchor="middle" x="240.7633" y="-223" font-family="Helvetica,sans-Serif" font-size="10.00" fill="#000000">{Main menu Running}</text>
</g>
<!-- A3&#45;&gt;A4 -->
<g id="edge5" class="edge">
<title>A3&#45;&gt;A4</title>
<path fill="none" stroke="#000000" d="M311.5274,-280.9551C299.6642,-271.7422 285.06,-260.4006 272.2057,-250.418"/>
<polygon fill="#000000" stroke="#000000" points="264.0578,-244.0904 274.716,-246.6699 268.0068,-247.1572 271.9558,-250.224 271.9558,-250.224 271.9558,-250.224 268.0068,-247.1572 269.1957,-253.7781 264.0578,-244.0904 264.0578,-244.0904"/>
</g>
<!-- A5 -->
<g id="node6" class="node">
<title>A5</title>
<path fill="none" stroke="#000000" d="M170.8003,-160C170.8003,-160 96.7263,-160 96.7263,-160 90.7263,-160 84.7263,-154 84.7263,-148 84.7263,-148 84.7263,-136 84.7263,-136 84.7263,-130 90.7263,-124 96.7263,-124 96.7263,-124 170.8003,-124 170.8003,-124 176.8003,-124 182.8003,-130 182.8003,-136 182.8003,-136 182.8003,-148 182.8003,-148 182.8003,-154 176.8003,-160 170.8003,-160"/>
<text text-anchor="middle" x="133.7633" y="-139" font-family="Helvetica,sans-Serif" font-size="10.00" fill="#000000">{Send Request}</text>
</g>
<!-- A4&#45;&gt;A5 -->
<g id="edge6" class="edge">
<title>A4&#45;&gt;A5</title>
<path fill="none" stroke="#000000" d="M235.9153,-207.6632C232.5077,-197.8011 227.0488,-186.0475 218.7633,-178 211.1841,-170.6385 201.8711,-164.6809 192.22,-159.8925"/>
<polygon fill="#000000" stroke="#000000" points="182.9088,-155.6521 193.8746,-155.7014 187.4592,-157.7244 192.0095,-159.7967 192.0095,-159.7967 192.0095,-159.7967 187.4592,-157.7244 190.1444,-163.8921 182.9088,-155.6521 182.9088,-155.6521"/>
<text text-anchor="middle" x="251.3733" y="-181" font-family="Helvetica,sans-Serif" font-size="10.00" fill="#000000">[Withdraw]</text>
</g>
<!-- A4&#45;&gt;A5 -->
<g id="edge7" class="edge">
<title>A4&#45;&gt;A5</title>
<path fill="none" stroke="#000000" d="M178.6289,-220.6175C113.0043,-214.2898 17.4577,-202.9886 6.3113,-190 -16.831,-163.033 31.1278,-151.1857 74.6798,-145.9998"/>
<polygon fill="#000000" stroke="#000000" points="84.7413,-144.9051 75.2867,-150.4604 79.7706,-145.446 74.7999,-145.9868 74.7999,-145.9868 74.7999,-145.9868 79.7706,-145.446 74.3132,-141.5132 84.7413,-144.9051 84.7413,-144.9051"/>
<text text-anchor="middle" x="26.4893" y="-181" font-family="Helvetica,sans-Serif" font-size="10.00" fill="#000000">[Deposit]</text>
</g>
<!-- A4&#45;&gt;A5 -->
<g id="edge8" class="edge">
<title>A4&#45;&gt;A5</title>
<path fill="none" stroke="#000000" d="M178.3831,-221.0858C135.0721,-216.2276 82.7654,-206.971 68.9823,-190 61.3926,-180.6548 66.2147,-172.171 75.9655,-165.0246"/>
<polygon fill="#000000" stroke="#000000" points="84.6992,-159.5892 78.5868,-168.6936 80.4541,-162.2311 76.2091,-164.873 76.2091,-164.873 76.2091,-164.873 80.4541,-162.2311 73.8314,-161.0525 84.6992,-159.5892 84.6992,-159.5892"/>
<text text-anchor="middle" x="91.1538" y="-181" font-family="Helvetica,sans-Serif" font-size="10.00" fill="#000000">[Transfer]</text>
</g>
<!-- A4&#45;&gt;A5 -->
<g id="edge11" class="edge">
<title>A4&#45;&gt;A5</title>
<path fill="none" stroke="#000000" d="M178.5158,-212.3647C157.2089,-206.3417 137.1343,-198.6571 130.8603,-190 126.7788,-184.3681 125.6613,-177.3182 126.0109,-170.3696"/>
<polygon fill="#000000" stroke="#000000" points="127.3984,-160.4388 130.4713,-170.9653 126.7065,-165.3907 126.0146,-170.3426 126.0146,-170.3426 126.0146,-170.3426 126.7065,-165.3907 121.5579,-169.7198 127.3984,-160.4388 127.3984,-160.4388"/>
<text text-anchor="middle" x="173.7148" y="-181" font-family="Helvetica,sans-Serif" font-size="10.00" fill="#000000">[Transactional List]</text>
</g>
<!-- A7 -->
<g id="node8" class="node">
<title>A7</title>
<path fill="none" stroke="#000000" d="M461.5158,-160C461.5158,-160 420.0108,-160 420.0108,-160 414.0108,-160 408.0108,-154 408.0108,-148 408.0108,-148 408.0108,-136 408.0108,-136 408.0108,-130 414.0108,-124 420.0108,-124 420.0108,-124 461.5158,-124 461.5158,-124 467.5158,-124 473.5158,-130 473.5158,-136 473.5158,-136 473.5158,-148 473.5158,-148 473.5158,-154 467.5158,-160 461.5158,-160"/>
<text text-anchor="middle" x="440.7633" y="-139" font-family="Helvetica,sans-Serif" font-size="10.00" fill="#000000">{Logout}</text>
</g>
<!-- A4&#45;&gt;A7 -->
<g id="edge12" class="edge">
<title>A4&#45;&gt;A7</title>
<path fill="none" stroke="#000000" d="M277.9915,-207.8679C289.4912,-202.206 302.1777,-195.8978 313.7633,-190 323.9855,-184.7963 326.0833,-182.5509 336.6123,-178 359.1199,-168.2717 365.5887,-168.0104 388.7633,-160 391.8784,-158.9233 395.0983,-157.8098 398.3381,-156.6892"/>
<polygon fill="#000000" stroke="#000000" points="408.0328,-153.3348 400.0539,-160.8573 403.3076,-154.9697 398.5825,-156.6047 398.5825,-156.6047 398.5825,-156.6047 403.3076,-154.9697 397.111,-152.352 408.0328,-153.3348 408.0328,-153.3348"/>
<text text-anchor="middle" x="384.8388" y="-181" font-family="Helvetica,sans-Serif" font-size="10.00" fill="#000000">[Press Logout Button]</text>
</g>
<!-- A6 -->
<g id="node7" class="node">
<title>A6</title>
<polygon fill="none" stroke="#000000" points="162.7633,-44 162.7633,-76 275.7633,-76 275.7633,-44 162.7633,-44"/>
<text text-anchor="start" x="202.8713" y="-57" font-family="Helvetica,sans-Serif" font-size="10.00" fill="#000000">{Server</text>
<polygon fill="none" stroke="#000000" points="162.7633,0 162.7633,-44 275.7633,-44 275.7633,0 162.7633,0"/>
<text text-anchor="start" x="172.5868" y="-25" font-family="Helvetica,sans-Serif" font-size="10.00" fill="#000000">Server Request Data</text>
<text text-anchor="start" x="196.7568" y="-13" font-family="Helvetica,sans-Serif" font-size="10.00" fill="#000000">Received}</text>
</g>
<!-- A5&#45;&gt;A6 -->
<g id="edge9" class="edge">
<title>A5&#45;&gt;A6</title>
<path fill="none" stroke="#000000" d="M148.5692,-123.8846C157.6392,-112.7872 169.6897,-98.043 181.2426,-83.9077"/>
<polygon fill="#000000" stroke="#000000" points="187.5876,-76.1444 184.7435,-86.7351 184.4234,-80.0159 181.2592,-83.8873 181.2592,-83.8873 181.2592,-83.8873 184.4234,-80.0159 177.7749,-81.0396 187.5876,-76.1444 187.5876,-76.1444"/>
<text text-anchor="middle" x="209.2713" y="-97" font-family="Helvetica,sans-Serif" font-size="10.00" fill="#000000">[Server Request]</text>
</g>
<!-- A6&#45;&gt;A4 -->
<g id="edge10" class="edge">
<title>A6&#45;&gt;A4</title>
<path fill="none" stroke="#000000" d="M241.8225,-76.0388C245.0201,-81.9541 248.1124,-88.071 250.7633,-94 266.8259,-129.9254 272.4597,-139.1554 278.7633,-178 279.6176,-183.2645 280.8707,-185.1007 278.7633,-190 277.1923,-193.6523 275.0485,-197.1077 272.5734,-200.3268"/>
<polygon fill="#000000" stroke="#000000" points="265.8765,-207.8196 269.1854,-197.3648 269.2085,-204.0916 272.5406,-200.3636 272.5406,-200.3636 272.5406,-200.3636 269.2085,-204.0916 275.8958,-203.3624 265.8765,-207.8196 265.8765,-207.8196"/>
<text text-anchor="middle" x="316.6068" y="-139" font-family="Helvetica,sans-Serif" font-size="10.00" fill="#000000">[Process Request]</text>
</g>
<!-- A7&#45;&gt;A2 -->
<g id="edge13" class="edge">
<title>A7&#45;&gt;A2</title>
<path fill="none" stroke="#000000" d="M443.5764,-160.2233C448.4823,-196.8653 456.0073,-281.5511 432.7633,-347 431.6391,-350.1657 430.1307,-353.2835 428.399,-356.2804"/>
<polygon fill="#000000" stroke="#000000" points="422.6947,-364.8345 424.4989,-354.0181 425.4688,-360.6746 428.2428,-356.5147 428.2428,-356.5147 428.2428,-356.5147 425.4688,-360.6746 431.9867,-359.0113 422.6947,-364.8345 422.6947,-364.8345"/>
</g>
<!-- A8 -->
<g id="node9" class="node">
<title>A8</title>
<ellipse fill="none" stroke="#000000" cx="449.7633" cy="-537" rx="11" ry="11"/>
<ellipse fill="none" stroke="#000000" cx="449.7633" cy="-537" rx="15" ry="15"/>
</g>
</g>
</svg>
