<?xml version="1.0" encoding="UTF-8" standalone="no"?>
<!DOCTYPE svg PUBLIC "-//W3C//DTD SVG 1.1//EN"
 "http://www.w3.org/Graphics/SVG/1.1/DTD/svg11.dtd">
<!-- Generated by graphviz version 2.40.1 (20161225.0304)
 -->
<!-- Title: G Pages: 1 -->
<svg width="946pt" height="306pt"
 viewBox="0.00 0.00 946.12 305.63" xmlns="http://www.w3.org/2000/svg" xmlns:xlink="http://www.w3.org/1999/xlink">
<g id="graph0" class="graph" transform="scale(1 1) rotate(0) translate(4 301.6274)">
<title>G</title>
<polygon fill="#ffffff" stroke="transparent" points="-4,4 -4,-301.6274 942.1186,-301.6274 942.1186,4 -4,4"/>
<!-- A0 -->
<g id="node1" class="node">
<title>A0</title>
<g transform="translate(220.472,-218.6274)" style="fill:none;stroke:black;stroke-width:1px"><circle cx="0" cy="-20" r="7.5" />
                <line x1="0" y1="-12.5" x2="0" y2="5" />
                <line x1="-15" y1="-5" x2="15" y2="-5" />
                <line x1="0" y1="5" x2="-15" y2="17" />
                <line x1="0" y1="5" x2="15" y2="17" /></g>
<text text-anchor="middle" x="220.472" y="-193.6274" font-family="Helvetica,sans-Serif" font-size="10.00" fill="#000000">Staff</text>
</g>
<!-- A1 -->
<g id="node2" class="node">
<title>A1</title>
<ellipse fill="none" stroke="#000000" cx="420.9897" cy="-221.6274" rx="47.4846" ry="18"/>
<text text-anchor="middle" x="420.9897" y="-218.6274" font-family="Helvetica,sans-Serif" font-size="10.00" fill="#000000">Run Server</text>
</g>
<!-- A0&#45;&gt;A1 -->
<g id="edge1" class="edge">
<title>A0&#45;&gt;A1</title>
<path fill="none" stroke="#000000" d="M260.0879,-221.6274C292.7304,-221.6274 339.1108,-221.6274 373.6959,-221.6274"/>
</g>
<!-- A2 -->
<g id="node3" class="node">
<title>A2</title>
<ellipse fill="none" stroke="#000000" cx="642.5613" cy="-167.6274" rx="69.1005" ry="18"/>
<text text-anchor="middle" x="642.5613" y="-164.6274" font-family="Helvetica,sans-Serif" font-size="10.00" fill="#000000">User Authentication</text>
</g>
<!-- A1&#45;&gt;A2 -->
<g id="edge2" class="edge">
<title>A1&#45;&gt;A2</title>
<path fill="none" stroke="#000000" stroke-dasharray="5,2" d="M460.8581,-211.9109C494.4838,-203.7159 543.1465,-191.8561 581.6509,-182.4721"/>
<polygon fill="#000000" stroke="#000000" points="591.712,-180.0201 583.0619,-186.76 586.8542,-181.204 581.9964,-182.388 581.9964,-182.388 581.9964,-182.388 586.8542,-181.204 580.9308,-178.0159 591.712,-180.0201 591.712,-180.0201"/>
<text text-anchor="middle" x="520.7464" y="-204.6274" font-family="Helvetica,sans-Serif" font-size="10.00" fill="#000000">&lt;&lt;include&gt;&gt;</text>
</g>
<!-- A5 -->
<g id="node6" class="node">
<title>A5</title>
<ellipse fill="none" stroke="#000000" cx="877.5049" cy="-137.6274" rx="60.7275" ry="18"/>
<text text-anchor="middle" x="877.5049" y="-134.6274" font-family="Helvetica,sans-Serif" font-size="10.00" fill="#000000">Database Query</text>
</g>
<!-- A2&#45;&gt;A5 -->
<g id="edge5" class="edge">
<title>A2&#45;&gt;A5</title>
<path fill="none" stroke="#000000" stroke-dasharray="5,2" d="M704.9051,-159.6667C737.7992,-155.4665 778.1517,-150.3139 811.5661,-146.0472"/>
<polygon fill="#000000" stroke="#000000" points="821.6974,-144.7535 812.348,-150.484 816.7377,-145.3868 811.778,-146.0202 811.778,-146.0202 811.778,-146.0202 816.7377,-145.3868 811.208,-141.5564 821.6974,-144.7535 821.6974,-144.7535"/>
<text text-anchor="middle" x="764.3763" y="-157.6274" font-family="Helvetica,sans-Serif" font-size="10.00" fill="#000000">&lt;&lt;include&gt;&gt;</text>
</g>
<!-- A3 -->
<g id="node4" class="node">
<title>A3</title>
<ellipse fill="none" stroke="#000000" cx="420.9897" cy="-167.6274" rx="31.5864" ry="18"/>
<text text-anchor="middle" x="420.9897" y="-164.6274" font-family="Helvetica,sans-Serif" font-size="10.00" fill="#000000">Login</text>
</g>
<!-- A3&#45;&gt;A2 -->
<g id="edge3" class="edge">
<title>A3&#45;&gt;A2</title>
<path fill="none" stroke="#000000" stroke-dasharray="5,2" d="M452.7355,-167.6274C481.4051,-167.6274 524.8102,-167.6274 562.882,-167.6274"/>
<polygon fill="#000000" stroke="#000000" points="572.9463,-167.6274 562.9464,-172.1275 567.9463,-167.6275 562.9463,-167.6275 562.9463,-167.6275 562.9463,-167.6275 567.9463,-167.6275 562.9463,-163.1275 572.9463,-167.6274 572.9463,-167.6274"/>
<text text-anchor="middle" x="520.7464" y="-170.6274" font-family="Helvetica,sans-Serif" font-size="10.00" fill="#000000">&lt;&lt;include&gt;&gt;</text>
</g>
<!-- A4 -->
<g id="node5" class="node">
<title>A4</title>
<ellipse fill="none" stroke="#000000" cx="220.472" cy="-135.6274" rx="48.4931" ry="18"/>
<text text-anchor="middle" x="220.472" y="-132.6274" font-family="Helvetica,sans-Serif" font-size="10.00" fill="#000000">Transaction</text>
</g>
<!-- A4&#45;&gt;A3 -->
<g id="edge4" class="edge">
<title>A4&#45;&gt;A3</title>
<path fill="none" stroke="#000000" stroke-dasharray="5,2" d="M264.9734,-142.7293C299.5835,-148.2526 347.1919,-155.8503 380.6878,-161.1958"/>
<polygon fill="#000000" stroke="#000000" points="390.6,-162.7776 380.0158,-165.6454 385.6625,-161.9896 380.725,-161.2016 380.725,-161.2016 380.725,-161.2016 385.6625,-161.9896 381.4342,-156.7578 390.6,-162.7776 390.6,-162.7776"/>
<text text-anchor="middle" x="321.233" y="-157.6274" font-family="Helvetica,sans-Serif" font-size="10.00" fill="#000000">&lt;&lt;include&gt;&gt;</text>
</g>
<!-- A4&#45;&gt;A5 -->
<g id="edge6" class="edge">
<title>A4&#45;&gt;A5</title>
<path fill="none" stroke="#000000" stroke-dasharray="5,2" d="M268.7852,-135.7745C383.3064,-136.1231 671.7144,-137.001 806.2897,-137.4106"/>
<polygon fill="#000000" stroke="#000000" points="816.4886,-137.4417 806.4749,-141.9111 811.4886,-137.4264 806.4887,-137.4111 806.4887,-137.4111 806.4887,-137.4111 811.4886,-137.4264 806.5024,-132.9112 816.4886,-137.4417 816.4886,-137.4417"/>
<text text-anchor="middle" x="520.7464" y="-138.6274" font-family="Helvetica,sans-Serif" font-size="10.00" fill="#000000">&lt;&lt;include&gt;&gt;</text>
</g>
<!-- A6 -->
<g id="node7" class="node">
<title>A6</title>
<g transform="translate(60.613,-258.6274)" style="fill:none;stroke:black;stroke-width:1px"><circle cx="0" cy="-20" r="7.5" />
                <line x1="0" y1="-12.5" x2="0" y2="5" />
                <line x1="-15" y1="-5" x2="15" y2="-5" />
                <line x1="0" y1="5" x2="-15" y2="17" />
                <line x1="0" y1="5" x2="15" y2="17" /></g>
<text text-anchor="middle" x="60.613" y="-233.62740000000002" font-family="Helvetica,sans-Serif" font-size="10.00" fill="#000000">User</text>
</g>
<!-- A6&#45;&gt;A4 -->
<g id="edge7" class="edge">
<title>A6&#45;&gt;A4</title>
<path fill="none" stroke="#000000" d="M100.5869,-232.3547C107.5103,-227.1697 114.6078,-221.7806 121.2261,-216.6274 149.1278,-194.9024 180.6552,-168.9176 200.5412,-152.345"/>
</g>
<!-- A7 -->
<g id="node8" class="node">
<title>A7</title>
<ellipse fill="none" stroke="#000000" cx="60.613" cy="-189.6274" rx="37.4397" ry="18"/>
<text text-anchor="middle" x="60.613" y="-186.6274" font-family="Helvetica,sans-Serif" font-size="10.00" fill="#000000">Deposit</text>
</g>
<!-- A7&#45;&gt;A4 -->
<g id="edge8" class="edge">
<title>A7&#45;&gt;A4</title>
<path fill="none" stroke="#000000" d="M91.4355,-179.2157C115.1114,-171.218 148.1729,-160.0499 174.9025,-151.0207"/>
<polygon fill="none" stroke="#000000" points="176.0807,-154.3171 184.4346,-147.8008 173.8404,-147.6852 176.0807,-154.3171"/>
</g>
<!-- A8 -->
<g id="node9" class="node">
<title>A8</title>
<ellipse fill="none" stroke="#000000" cx="60.613" cy="-135.6274" rx="46.6353" ry="18"/>
<text text-anchor="middle" x="60.613" y="-132.6274" font-family="Helvetica,sans-Serif" font-size="10.00" fill="#000000">Withdrawal</text>
</g>
<!-- A8&#45;&gt;A4 -->
<g id="edge9" class="edge">
<title>A8&#45;&gt;A4</title>
<path fill="none" stroke="#000000" d="M107.2806,-135.6274C124.3855,-135.6274 143.9639,-135.6274 161.9747,-135.6274"/>
<polygon fill="none" stroke="#000000" points="162.0795,-139.1275 172.0795,-135.6274 162.0794,-132.1275 162.0795,-139.1275"/>
</g>
<!-- A9 -->
<g id="node10" class="node">
<title>A9</title>
<ellipse fill="none" stroke="#000000" cx="60.613" cy="-81.6274" rx="60.7263" ry="18"/>
<text text-anchor="middle" x="60.613" y="-78.6274" font-family="Helvetica,sans-Serif" font-size="10.00" fill="#000000">Account transfer</text>
</g>
<!-- A9&#45;&gt;A4 -->
<g id="edge10" class="edge">
<title>A9&#45;&gt;A4</title>
<path fill="none" stroke="#000000" d="M100.9522,-95.2539C123.4514,-102.8541 151.5497,-112.3456 174.8484,-120.2159"/>
<polygon fill="none" stroke="#000000" points="173.9152,-123.5949 184.5094,-123.4793 176.1554,-116.963 173.9152,-123.5949"/>
</g>
<!-- A10 -->
<g id="node11" class="node">
<title>A10</title>
<ellipse fill="none" stroke="#000000" cx="60.613" cy="-22.6274" rx="59.7544" ry="22.7556"/>
<text text-anchor="middle" x="60.613" y="-25.6274" font-family="Helvetica,sans-Serif" font-size="10.00" fill="#000000">transactional</text>
<text text-anchor="middle" x="60.613" y="-13.6274" font-family="Helvetica,sans-Serif" font-size="10.00" fill="#000000">information</text>
</g>
<!-- A10&#45;&gt;A4 -->
<g id="edge11" class="edge">
<title>A10&#45;&gt;A4</title>
<path fill="none" stroke="#000000" d="M97.5095,-40.6048C105.5031,-44.9107 113.7861,-49.6982 121.2261,-54.6274 147.6245,-72.1171 175.3589,-95.2083 194.7771,-112.2599"/>
<polygon fill="none" stroke="#000000" points="192.4999,-114.9184 202.3045,-118.9335 197.1437,-109.6805 192.4999,-114.9184"/>
</g>
</g>
</svg>
