<?xml version="1.0" encoding="UTF-8" standalone="no"?>
<!DOCTYPE svg PUBLIC "-//W3C//DTD SVG 1.1//EN"
 "http://www.w3.org/Graphics/SVG/1.1/DTD/svg11.dtd">
<!-- Generated by graphviz version 2.40.1 (20161225.0304)
 -->
<!-- Title: G Pages: 1 -->
<svg width="799pt" height="560pt"
 viewBox="0.00 0.00 798.78 560.00" xmlns="http://www.w3.org/2000/svg" xmlns:xlink="http://www.w3.org/1999/xlink">
<g id="graph0" class="graph" transform="scale(1 1) rotate(0) translate(4 556)">
<title>G</title>
<polygon fill="#ffffff" stroke="transparent" points="-4,4 -4,-556 794.7785,-556 794.7785,4 -4,4"/>
<!-- A0 -->
<g id="node1" class="node">
<title>A0</title>
<polygon fill="none" stroke="#000000" points="508.2833,-552 437.7187,-552 437.7187,-516 508.2833,-516 508.2833,-552"/>
<text text-anchor="middle" x="473.001" y="-531" font-family="Helvetica,sans-Serif" font-size="10.00" fill="#000000">Main.java</text>
</g>
<!-- A1 -->
<g id="node2" class="node">
<title>A1</title>
<polygon fill="none" stroke="#000000" points="507.6847,-466 438.3173,-466 438.3173,-430 507.6847,-430 507.6847,-466"/>
<text text-anchor="middle" x="473.001" y="-451" font-family="Helvetica,sans-Serif" font-size="10.00" fill="#000000">&lt;&lt;fxml&gt;&gt;</text>
<text text-anchor="middle" x="473.001" y="-439" font-family="Helvetica,sans-Serif" font-size="10.00" fill="#000000">Login</text>
</g>
<!-- A0&#45;&gt;A1 -->
<g id="edge1" class="edge">
<title>A0&#45;&gt;A1</title>
<path fill="none" stroke="#000000" d="M473.001,-515.7616C473.001,-504.3597 473.001,-489.4342 473.001,-476.494"/>
<polygon fill="#000000" stroke="#000000" points="473.001,-466.2121 477.5011,-476.2121 473.001,-471.2121 473.0011,-476.2121 473.0011,-476.2121 473.0011,-476.2121 473.001,-471.2121 468.5011,-476.2121 473.001,-466.2121 473.001,-466.2121"/>
</g>
<!-- A2 -->
<g id="node3" class="node">
<title>A2</title>
<polygon fill="none" stroke="#000000" points="463.7862,-380 368.2158,-380 368.2158,-344 463.7862,-344 463.7862,-380"/>
<text text-anchor="middle" x="416.001" y="-365" font-family="Helvetica,sans-Serif" font-size="10.00" fill="#000000">&lt;&lt;controller&gt;&gt;</text>
<text text-anchor="middle" x="416.001" y="-353" font-family="Helvetica,sans-Serif" font-size="10.00" fill="#000000">LoginController</text>
</g>
<!-- A1&#45;&gt;A2 -->
<g id="edge2" class="edge">
<title>A1&#45;&gt;A2</title>
<path fill="none" stroke="#000000" stroke-dasharray="5,2" d="M460.9128,-429.7616C452.9778,-417.7896 442.4681,-401.9328 433.6104,-388.5685"/>
<polygon fill="#000000" stroke="#000000" points="428.0718,-380.2121 437.3474,-386.0614 430.8341,-384.3798 433.5965,-388.5475 433.5965,-388.5475 433.5965,-388.5475 430.8341,-384.3798 429.8455,-391.0336 428.0718,-380.2121 428.0718,-380.2121"/>
<text text-anchor="middle" x="443.8534" y="-416.3224" font-family="Helvetica,sans-Serif" font-size="10.00" fill="#000000">uses</text>
</g>
<!-- A3 -->
<g id="node4" class="node">
<title>A3</title>
<polygon fill="none" stroke="#000000" points="580.0819,-380 481.9201,-380 481.9201,-344 580.0819,-344 580.0819,-380"/>
<text text-anchor="middle" x="531.001" y="-365" font-family="Helvetica,sans-Serif" font-size="10.00" fill="#000000">&lt;&lt;fxml&gt;&gt;</text>
<text text-anchor="middle" x="531.001" y="-353" font-family="Helvetica,sans-Serif" font-size="10.00" fill="#000000">AccountChoose</text>
</g>
<!-- A1&#45;&gt;A3 -->
<g id="edge3" class="edge">
<title>A1&#45;&gt;A3</title>
<path fill="none" stroke="#000000" d="M485.3013,-429.7616C493.3755,-417.7896 504.0696,-401.9328 513.0827,-388.5685"/>
<polygon fill="#000000" stroke="#000000" points="518.7184,-380.2121 516.8578,-391.019 515.9227,-384.3575 513.127,-388.5028 513.127,-388.5028 513.127,-388.5028 515.9227,-384.3575 509.3961,-385.9867 518.7184,-380.2121 518.7184,-380.2121"/>
</g>
<!-- A4 -->
<g id="node5" class="node">
<title>A4</title>
<polygon fill="none" stroke="#000000" points="510.1737,-294 435.8283,-294 435.8283,-258 510.1737,-258 510.1737,-294"/>
<text text-anchor="middle" x="473.001" y="-279" font-family="Helvetica,sans-Serif" font-size="10.00" fill="#000000">&lt;&lt;fxml&gt;&gt;</text>
<text text-anchor="middle" x="473.001" y="-267" font-family="Helvetica,sans-Serif" font-size="10.00" fill="#000000">Mainmenu</text>
</g>
<!-- A3&#45;&gt;A4 -->
<g id="edge4" class="edge">
<title>A3&#45;&gt;A4</title>
<path fill="none" stroke="#000000" d="M518.7007,-343.7616C510.6265,-331.7896 499.9324,-315.9328 490.9193,-302.5685"/>
<polygon fill="#000000" stroke="#000000" points="485.2836,-294.2121 494.6059,-299.9867 488.0793,-298.3575 490.875,-302.5028 490.875,-302.5028 490.875,-302.5028 488.0793,-298.3575 487.1442,-305.019 485.2836,-294.2121 485.2836,-294.2121"/>
</g>
<!-- A5 -->
<g id="node6" class="node">
<title>A5</title>
<polygon fill="none" stroke="#000000" points="651.513,-294 528.489,-294 528.489,-258 651.513,-258 651.513,-294"/>
<text text-anchor="middle" x="590.001" y="-279" font-family="Helvetica,sans-Serif" font-size="10.00" fill="#000000">&lt;&lt;controller&gt;&gt;</text>
<text text-anchor="middle" x="590.001" y="-267" font-family="Helvetica,sans-Serif" font-size="10.00" fill="#000000">AccountListController</text>
</g>
<!-- A3&#45;&gt;A5 -->
<g id="edge5" class="edge">
<title>A3&#45;&gt;A5</title>
<path fill="none" stroke="#000000" stroke-dasharray="5,2" d="M543.5134,-343.7616C551.7268,-331.7896 562.6052,-315.9328 571.7738,-302.5685"/>
<polygon fill="#000000" stroke="#000000" points="577.5067,-294.2121 575.5602,-305.0039 574.6781,-298.3351 571.8495,-302.4581 571.8495,-302.4581 571.8495,-302.4581 574.6781,-298.3351 568.1388,-299.9124 577.5067,-294.2121 577.5067,-294.2121"/>
<text text-anchor="middle" x="546.7978" y="-321.0331" font-family="Helvetica,sans-Serif" font-size="10.00" fill="#000000">uses</text>
</g>
<!-- A6 -->
<g id="node7" class="node">
<title>A6</title>
<polygon fill="none" stroke="#000000" points="118.003,-208 -.001,-208 -.001,-172 118.003,-172 118.003,-208"/>
<text text-anchor="middle" x="59.001" y="-193" font-family="Helvetica,sans-Serif" font-size="10.00" fill="#000000">&lt;&lt;controller&gt;&gt;</text>
<text text-anchor="middle" x="59.001" y="-181" font-family="Helvetica,sans-Serif" font-size="10.00" fill="#000000">MainmenuController</text>
</g>
<!-- A4&#45;&gt;A6 -->
<g id="edge6" class="edge">
<title>A4&#45;&gt;A6</title>
<path fill="none" stroke="#000000" stroke-dasharray="5,2" d="M435.7111,-269.4891C373.8526,-258.511 245.9505,-235.0614 128.189,-208.2067"/>
<polygon fill="#000000" stroke="#000000" points="118.283,-205.934 129.0361,-203.7842 123.1564,-207.0521 128.0298,-208.1702 128.0298,-208.1702 128.0298,-208.1702 123.1564,-207.0521 127.0234,-212.5563 118.283,-205.934 118.283,-205.934"/>
<text text-anchor="middle" x="416.3803" y="-271.6193" font-family="Helvetica,sans-Serif" font-size="10.00" fill="#000000">uses</text>
</g>
<!-- A7 -->
<g id="node8" class="node">
<title>A7</title>
<polygon fill="none" stroke="#000000" points="205.6847,-208 136.3173,-208 136.3173,-172 205.6847,-172 205.6847,-208"/>
<text text-anchor="middle" x="171.001" y="-193" font-family="Helvetica,sans-Serif" font-size="10.00" fill="#000000">&lt;&lt;fxml&gt;&gt;</text>
<text text-anchor="middle" x="171.001" y="-181" font-family="Helvetica,sans-Serif" font-size="10.00" fill="#000000">Deposit</text>
</g>
<!-- A4&#45;&gt;A7 -->
<g id="edge7" class="edge">
<title>A4&#45;&gt;A7</title>
<path fill="none" stroke="#000000" d="M435.7007,-265.9676C387.7536,-252.9884 301.9805,-229.4887 229.001,-208 224.6742,-206.726 220.1737,-205.3751 215.6785,-204.0086"/>
<polygon fill="#000000" stroke="#000000" points="205.9155,-201.0159 216.7952,-199.6443 210.6959,-202.4813 215.4764,-203.9467 215.4764,-203.9467 215.4764,-203.9467 210.6959,-202.4813 214.1575,-208.2491 205.9155,-201.0159 205.9155,-201.0159"/>
</g>
<!-- A8 -->
<g id="node9" class="node">
<title>A8</title>
<polygon fill="none" stroke="#000000" points="465.6847,-208 396.3173,-208 396.3173,-172 465.6847,-172 465.6847,-208"/>
<text text-anchor="middle" x="431.001" y="-193" font-family="Helvetica,sans-Serif" font-size="10.00" fill="#000000">&lt;&lt;fxml&gt;&gt;</text>
<text text-anchor="middle" x="431.001" y="-181" font-family="Helvetica,sans-Serif" font-size="10.00" fill="#000000">Withdraw</text>
</g>
<!-- A4&#45;&gt;A8 -->
<g id="edge8" class="edge">
<title>A4&#45;&gt;A8</title>
<path fill="none" stroke="#000000" d="M464.0939,-257.7616C458.3584,-246.0176 450.7974,-230.5355 444.3506,-217.3349"/>
<polygon fill="#000000" stroke="#000000" points="439.8953,-208.2121 448.3272,-215.223 442.0895,-212.7049 444.2837,-217.1978 444.2837,-217.1978 444.2837,-217.1978 442.0895,-212.7049 440.2401,-219.1726 439.8953,-208.2121 439.8953,-208.2121"/>
</g>
<!-- A9 -->
<g id="node10" class="node">
<title>A9</title>
<polygon fill="none" stroke="#000000" points="617.6847,-208 548.3173,-208 548.3173,-172 617.6847,-172 617.6847,-208"/>
<text text-anchor="middle" x="583.001" y="-193" font-family="Helvetica,sans-Serif" font-size="10.00" fill="#000000">&lt;&lt;fxml&gt;&gt;</text>
<text text-anchor="middle" x="583.001" y="-181" font-family="Helvetica,sans-Serif" font-size="10.00" fill="#000000">Send</text>
</g>
<!-- A4&#45;&gt;A9 -->
<g id="edge9" class="edge">
<title>A4&#45;&gt;A9</title>
<path fill="none" stroke="#000000" d="M496.0606,-257.9716C512.1943,-245.358 533.9394,-228.3573 551.6461,-214.5139"/>
<polygon fill="#000000" stroke="#000000" points="559.9718,-208.0047 554.8653,-217.7091 556.0327,-211.0843 552.0937,-214.1639 552.0937,-214.1639 552.0937,-214.1639 556.0327,-211.0843 549.322,-210.6188 559.9718,-208.0047 559.9718,-208.0047"/>
</g>
<!-- A10 -->
<g id="node11" class="node">
<title>A10</title>
<polygon fill="none" stroke="#000000" points="764.6847,-208 695.3173,-208 695.3173,-172 764.6847,-172 764.6847,-208"/>
<text text-anchor="middle" x="730.001" y="-193" font-family="Helvetica,sans-Serif" font-size="10.00" fill="#000000">&lt;&lt;fxml&gt;&gt;</text>
<text text-anchor="middle" x="730.001" y="-181" font-family="Helvetica,sans-Serif" font-size="10.00" fill="#000000">Record</text>
</g>
<!-- A4&#45;&gt;A10 -->
<g id="edge10" class="edge">
<title>A4&#45;&gt;A10</title>
<path fill="none" stroke="#000000" d="M510.3354,-261.1703C513.2596,-260.0763 516.1737,-259.0077 519.001,-258 534.904,-252.332 628.1318,-222.4883 685.215,-204.2722"/>
<polygon fill="#000000" stroke="#000000" points="695.0816,-201.1245 686.9224,-208.451 690.3182,-202.6442 685.5547,-204.1639 685.5547,-204.1639 685.5547,-204.1639 690.3182,-202.6442 684.187,-199.8768 695.0816,-201.1245 695.0816,-201.1245"/>
</g>
<!-- A13 -->
<g id="node14" class="node">
<title>A13</title>
<polygon fill="none" stroke="#000000" points="91.013,-122 12.989,-122 12.989,-86 91.013,-86 91.013,-122"/>
<text text-anchor="middle" x="52.001" y="-107" font-family="Helvetica,sans-Serif" font-size="10.00" fill="#000000">&lt;&lt;fxml&gt;&gt;</text>
<text text-anchor="middle" x="52.001" y="-95" font-family="Helvetica,sans-Serif" font-size="10.00" fill="#000000">Deposit_ok</text>
</g>
<!-- A7&#45;&gt;A13 -->
<g id="edge13" class="edge">
<title>A7&#45;&gt;A13</title>
<path fill="none" stroke="#000000" d="M146.0547,-171.9716C128.363,-159.186 104.434,-141.8928 85.1402,-127.9493"/>
<polygon fill="#000000" stroke="#000000" points="76.9145,-122.0047 87.6553,-124.2149 80.967,-124.9334 85.0195,-127.8621 85.0195,-127.8621 85.0195,-127.8621 80.967,-124.9334 82.3836,-131.5094 76.9145,-122.0047 76.9145,-122.0047"/>
<text text-anchor="middle" x="96.5566" y="-122.7712" font-family="Helvetica,sans-Serif" font-size="10.00" fill="#000000">If Success</text>
</g>
<!-- A19 -->
<g id="node20" class="node">
<title>A19</title>
<polygon fill="none" stroke="#000000" points="214.7252,-122 109.2768,-122 109.2768,-86 214.7252,-86 214.7252,-122"/>
<text text-anchor="middle" x="162.001" y="-107" font-family="Helvetica,sans-Serif" font-size="10.00" fill="#000000">&lt;&lt;controller&gt;&gt;</text>
<text text-anchor="middle" x="162.001" y="-95" font-family="Helvetica,sans-Serif" font-size="10.00" fill="#000000">DepositController</text>
</g>
<!-- A7&#45;&gt;A19 -->
<g id="edge19" class="edge">
<title>A7&#45;&gt;A19</title>
<path fill="none" stroke="#000000" stroke-dasharray="5,2" d="M169.0923,-171.7616C167.8991,-160.3597 166.3371,-145.4342 164.9829,-132.494"/>
<polygon fill="#000000" stroke="#000000" points="163.9069,-122.2121 169.4234,-131.6894 164.4274,-127.1849 164.9478,-132.1578 164.9478,-132.1578 164.9478,-132.1578 164.4274,-127.1849 160.4723,-132.6262 163.9069,-122.2121 163.9069,-122.2121"/>
<text text-anchor="middle" x="158.7993" y="-151.6137" font-family="Helvetica,sans-Serif" font-size="10.00" fill="#000000">uses</text>
</g>
<!-- A14 -->
<g id="node15" class="node">
<title>A14</title>
<polygon fill="none" stroke="#000000" points="356.7813,-122 271.2207,-122 271.2207,-86 356.7813,-86 356.7813,-122"/>
<text text-anchor="middle" x="314.001" y="-107" font-family="Helvetica,sans-Serif" font-size="10.00" fill="#000000">&lt;&lt;fxml&gt;&gt;</text>
<text text-anchor="middle" x="314.001" y="-95" font-family="Helvetica,sans-Serif" font-size="10.00" fill="#000000">Withdraw_ok</text>
</g>
<!-- A8&#45;&gt;A14 -->
<g id="edge14" class="edge">
<title>A8&#45;&gt;A14</title>
<path fill="none" stroke="#000000" d="M406.474,-171.9716C389.0796,-159.186 365.5528,-141.8928 346.5832,-127.9493"/>
<polygon fill="#000000" stroke="#000000" points="338.4957,-122.0047 349.2184,-124.3014 342.5245,-124.966 346.5532,-127.9273 346.5532,-127.9273 346.5532,-127.9273 342.5245,-124.966 343.8881,-131.5532 338.4957,-122.0047 338.4957,-122.0047"/>
<text text-anchor="middle" x="358.1068" y="-122.9296" font-family="Helvetica,sans-Serif" font-size="10.00" fill="#000000">If Success</text>
</g>
<!-- A20 -->
<g id="node21" class="node">
<title>A20</title>
<polygon fill="none" stroke="#000000" points="487.493,-122 374.509,-122 374.509,-86 487.493,-86 487.493,-122"/>
<text text-anchor="middle" x="431.001" y="-107" font-family="Helvetica,sans-Serif" font-size="10.00" fill="#000000">&lt;&lt;controller&gt;&gt;</text>
<text text-anchor="middle" x="431.001" y="-95" font-family="Helvetica,sans-Serif" font-size="10.00" fill="#000000">WithdrawController</text>
</g>
<!-- A8&#45;&gt;A20 -->
<g id="edge20" class="edge">
<title>A8&#45;&gt;A20</title>
<path fill="none" stroke="#000000" stroke-dasharray="5,2" d="M431.001,-171.7616C431.001,-160.3597 431.001,-145.4342 431.001,-132.494"/>
<polygon fill="#000000" stroke="#000000" points="431.001,-122.2121 435.5011,-132.2121 431.001,-127.2121 431.0011,-132.2121 431.0011,-132.2121 431.0011,-132.2121 431.001,-127.2121 426.5011,-132.2121 431.001,-122.2121 431.001,-122.2121"/>
<text text-anchor="middle" x="422.5486" y="-150.6355" font-family="Helvetica,sans-Serif" font-size="10.00" fill="#000000">uses</text>
</g>
<!-- A15 -->
<g id="node16" class="node">
<title>A15</title>
<polygon fill="none" stroke="#000000" points="630.9662,-122 543.0358,-122 543.0358,-86 630.9662,-86 630.9662,-122"/>
<text text-anchor="middle" x="587.001" y="-107" font-family="Helvetica,sans-Serif" font-size="10.00" fill="#000000">&lt;&lt;fxml&gt;&gt;</text>
<text text-anchor="middle" x="587.001" y="-95" font-family="Helvetica,sans-Serif" font-size="10.00" fill="#000000">Sendsuccess</text>
</g>
<!-- A9&#45;&gt;A15 -->
<g id="edge15" class="edge">
<title>A9&#45;&gt;A15</title>
<path fill="none" stroke="#000000" d="M583.8493,-171.7616C584.3796,-160.3597 585.0738,-145.4342 585.6757,-132.494"/>
<polygon fill="#000000" stroke="#000000" points="586.1539,-122.2121 590.1844,-132.4104 585.9216,-127.2067 585.6892,-132.2013 585.6892,-132.2013 585.6892,-132.2013 585.9216,-127.2067 581.1941,-131.9922 586.1539,-122.2121 586.1539,-122.2121"/>
<text text-anchor="middle" x="593.755" y="-137.7114" font-family="Helvetica,sans-Serif" font-size="10.00" fill="#000000">If Success</text>
</g>
<!-- A11 -->
<g id="node12" class="node">
<title>A11</title>
<polygon fill="none" stroke="#000000" points="790.557,-122 687.445,-122 687.445,-86 790.557,-86 790.557,-122"/>
<text text-anchor="middle" x="739.001" y="-107" font-family="Helvetica,sans-Serif" font-size="10.00" fill="#000000">&lt;&lt;controller&gt;&gt;</text>
<text text-anchor="middle" x="739.001" y="-95" font-family="Helvetica,sans-Serif" font-size="10.00" fill="#000000">RecordController</text>
</g>
<!-- A10&#45;&gt;A11 -->
<g id="edge11" class="edge">
<title>A10&#45;&gt;A11</title>
<path fill="none" stroke="#000000" stroke-dasharray="5,2" d="M731.9097,-171.7616C733.1029,-160.3597 734.6649,-145.4342 736.0191,-132.494"/>
<polygon fill="#000000" stroke="#000000" points="737.0951,-122.2121 740.5297,-132.6262 736.5746,-127.1849 736.0542,-132.1578 736.0542,-132.1578 736.0542,-132.1578 736.5746,-127.1849 731.5786,-131.6894 737.0951,-122.2121 737.0951,-122.2121"/>
<text text-anchor="middle" x="725.3898" y="-149.8542" font-family="Helvetica,sans-Serif" font-size="10.00" fill="#000000">uses</text>
</g>
<!-- A12 -->
<g id="node13" class="node">
<title>A12</title>
<polygon fill="none" stroke="#000000" points="789.2283,-36 688.7737,-36 688.7737,0 789.2283,0 789.2283,-36"/>
<text text-anchor="middle" x="739.001" y="-21" font-family="Helvetica,sans-Serif" font-size="10.00" fill="#000000">&lt;&lt;Object&gt;&gt;</text>
<text text-anchor="middle" x="739.001" y="-9" font-family="Helvetica,sans-Serif" font-size="10.00" fill="#000000">TableRowModel</text>
</g>
<!-- A11&#45;&gt;A12 -->
<g id="edge12" class="edge">
<title>A11&#45;&gt;A12</title>
<path fill="none" stroke="#000000" stroke-dasharray="5,2" d="M739.001,-85.7616C739.001,-74.3597 739.001,-59.4342 739.001,-46.494"/>
<polygon fill="#000000" stroke="#000000" points="739.001,-36.2121 743.5011,-46.2121 739.001,-41.2121 739.0011,-46.2121 739.0011,-46.2121 739.0011,-46.2121 739.001,-41.2121 734.5011,-46.2121 739.001,-36.2121 739.001,-36.2121"/>
<text text-anchor="middle" x="730.5486" y="-64.6355" font-family="Helvetica,sans-Serif" font-size="10.00" fill="#000000">uses</text>
</g>
<!-- A17 -->
<g id="node18" class="node">
<title>A17</title>
<polygon fill="none" stroke="#000000" points="235.004,-36 116.998,-36 116.998,0 235.004,0 235.004,-36"/>
<text text-anchor="middle" x="176.001" y="-21" font-family="Helvetica,sans-Serif" font-size="10.00" fill="#000000">&lt;&lt;controller&gt;&gt;</text>
<text text-anchor="middle" x="176.001" y="-9" font-family="Helvetica,sans-Serif" font-size="10.00" fill="#000000">DepositOkController</text>
</g>
<!-- A13&#45;&gt;A17 -->
<g id="edge17" class="edge">
<title>A13&#45;&gt;A17</title>
<path fill="none" stroke="#000000" stroke-dasharray="5,2" d="M77.9955,-85.9716C96.5132,-73.1286 121.5886,-55.7376 141.7396,-41.7619"/>
<polygon fill="#000000" stroke="#000000" points="150.0408,-36.0047 144.3882,-45.4014 145.9322,-38.8542 141.8236,-41.7037 141.8236,-41.7037 141.8236,-41.7037 145.9322,-38.8542 139.259,-38.006 150.0408,-36.0047 150.0408,-36.0047"/>
<text text-anchor="middle" x="88.073" y="-65.6961" font-family="Helvetica,sans-Serif" font-size="10.00" fill="#000000">uses</text>
</g>
<!-- A18 -->
<g id="node19" class="node">
<title>A18</title>
<polygon fill="none" stroke="#000000" points="439.7722,-36 314.2298,-36 314.2298,0 439.7722,0 439.7722,-36"/>
<text text-anchor="middle" x="377.001" y="-21" font-family="Helvetica,sans-Serif" font-size="10.00" fill="#000000">&lt;&lt;controller&gt;&gt;</text>
<text text-anchor="middle" x="377.001" y="-9" font-family="Helvetica,sans-Serif" font-size="10.00" fill="#000000">WithdrawOkController</text>
</g>
<!-- A14&#45;&gt;A18 -->
<g id="edge18" class="edge">
<title>A14&#45;&gt;A18</title>
<path fill="none" stroke="#000000" stroke-dasharray="5,2" d="M327.3617,-85.7616C336.1319,-73.7896 347.7479,-57.9328 357.538,-44.5685"/>
<polygon fill="#000000" stroke="#000000" points="363.6596,-36.2121 361.3801,-46.9385 360.7048,-40.2456 357.75,-44.2791 357.75,-44.2791 357.75,-44.2791 360.7048,-40.2456 354.1198,-41.6198 363.6596,-36.2121 363.6596,-36.2121"/>
<text text-anchor="middle" x="331.2549" y="-63.1442" font-family="Helvetica,sans-Serif" font-size="10.00" fill="#000000">uses</text>
</g>
<!-- A16 -->
<g id="node17" class="node">
<title>A16</title>
<polygon fill="none" stroke="#000000" points="661.2952,-36 530.7068,-36 530.7068,0 661.2952,0 661.2952,-36"/>
<text text-anchor="middle" x="596.001" y="-21" font-family="Helvetica,sans-Serif" font-size="10.00" fill="#000000">&lt;&lt;controller&gt;&gt;</text>
<text text-anchor="middle" x="596.001" y="-9" font-family="Helvetica,sans-Serif" font-size="10.00" fill="#000000">SendsuccessController</text>
</g>
<!-- A15&#45;&gt;A16 -->
<g id="edge16" class="edge">
<title>A15&#45;&gt;A16</title>
<path fill="none" stroke="#000000" stroke-dasharray="5,2" d="M588.9097,-85.7616C590.1029,-74.3597 591.6649,-59.4342 593.0191,-46.494"/>
<polygon fill="#000000" stroke="#000000" points="594.0951,-36.2121 597.5297,-46.6262 593.5746,-41.1849 593.0542,-46.1578 593.0542,-46.1578 593.0542,-46.1578 593.5746,-41.1849 588.5786,-45.6894 594.0951,-36.2121 594.0951,-36.2121"/>
<text text-anchor="middle" x="582.3898" y="-63.8542" font-family="Helvetica,sans-Serif" font-size="10.00" fill="#000000">uses</text>
</g>
<!-- A16&#45;&gt;A4 -->
<g id="edge21" class="edge">
<title>A16&#45;&gt;A4</title>
<path fill="none" stroke="#000000" d="M611.9251,-36.1618C622.1486,-49.0837 634.5051,-67.3898 640.001,-86 655.4449,-138.2964 660.11,-164.673 627.001,-208 623.4361,-212.665 563.6573,-238.2711 519.6477,-256.6876"/>
<polygon fill="#000000" stroke="#000000" points="510.2432,-260.6143 517.7372,-252.6087 514.8572,-258.6878 519.4711,-256.7613 519.4711,-256.7613 519.4711,-256.7613 514.8572,-258.6878 521.205,-260.9138 510.2432,-260.6143 510.2432,-260.6143"/>
<text text-anchor="middle" x="629.7045" y="-42.321" font-family="Helvetica,sans-Serif" font-size="10.00" fill="#000000">goBack</text>
</g>
<!-- A17&#45;&gt;A4 -->
<g id="edge22" class="edge">
<title>A17&#45;&gt;A4</title>
<path fill="none" stroke="#000000" d="M188.7775,-36.0822C204.591,-57.7962 232.9989,-94.7004 262.001,-122 317.4561,-174.1998 390.9516,-224.1832 434.9564,-252.396"/>
<polygon fill="#000000" stroke="#000000" points="443.6158,-257.9106 432.7638,-256.3347 439.3984,-255.2248 435.181,-252.539 435.181,-252.539 435.181,-252.539 439.3984,-255.2248 437.5982,-248.7433 443.6158,-257.9106 443.6158,-257.9106"/>
<text text-anchor="middle" x="206.3277" y="-42.6732" font-family="Helvetica,sans-Serif" font-size="10.00" fill="#000000">goBack</text>
</g>
<!-- A18&#45;&gt;A4 -->
<g id="edge23" class="edge">
<title>A18&#45;&gt;A4</title>
<path fill="none" stroke="#000000" d="M433.9675,-36.0396C457.5182,-46.6285 482.4454,-62.6412 496.001,-86 525.7644,-137.2878 502.8523,-209.4049 486.2432,-248.3847"/>
<polygon fill="#000000" stroke="#000000" points="482.0879,-257.7753 482.0193,-246.8096 484.1112,-253.2029 486.1345,-248.6305 486.1345,-248.6305 486.1345,-248.6305 484.1112,-253.2029 490.2496,-250.4515 482.0879,-257.7753 482.0879,-257.7753"/>
<text text-anchor="middle" x="453.9674" y="-33.1169" font-family="Helvetica,sans-Serif" font-size="10.00" fill="#000000">goBack</text>
</g>
</g>
</svg>
